<?xml version="1.0" standalone="no"?>
<!DOCTYPE svg PUBLIC "-//W3C//DTD SVG 20010904//EN"
 "http://www.w3.org/TR/2001/REC-SVG-20010904/DTD/svg10.dtd">
<svg version="1.0" xmlns="http://www.w3.org/2000/svg"
 width="981.000000pt" height="896.000000pt" viewBox="0 0 981.000000 896.000000"
 preserveAspectRatio="xMidYMid meet">

<g transform="translate(0.000000,896.000000) scale(0.100000,-0.100000)"
fill="#000000" stroke="none">
<path d="M4969 7940 c-75 -26 -190 -66 -255 -90 -229 -81 -430 -152 -494 -175
-39 -14 -59 -25 -50 -28 8 -4 67 -22 130 -42 63 -20 149 -46 190 -59 41 -13
95 -29 120 -36 25 -7 55 -16 68 -21 13 -5 34 -9 48 -9 23 0 575 214 634 246
34 18 21 17 -23 -1 -45 -19 -42 -20 -45 11 -1 15 2 23 8 19 6 -4 7 -11 4 -17
-4 -6 -1 -9 6 -6 24 8 21 23 -9 41 -16 9 -39 33 -52 53 -12 20 -44 56 -71 81
-26 25 -46 48 -43 51 6 6 -14 32 -24 31 -3 0 -67 -22 -142 -49z"/>
<path d="M3148 7893 c7 -3 16 -2 19 1 4 3 -2 6 -13 5 -11 0 -14 -3 -6 -6z"/>
<path d="M2910 7820 c-13 -9 -13 -10 0 -10 8 0 22 5 30 10 13 9 13 10 0 10 -8
0 -22 -5 -30 -10z"/>
<path d="M2612 7718 c-29 -12 -51 -22 -49 -24 5 -6 81 19 102 33 28 18 9 15
-53 -9z"/>
<path d="M4558 7363 c7 -3 16 -2 19 1 4 3 -2 6 -13 5 -11 0 -14 -3 -6 -6z"/>
<path d="M5298 7283 c7 -3 16 -2 19 1 4 3 -2 6 -13 5 -11 0 -14 -3 -6 -6z"/>
<path d="M1218 7233 c7 -3 16 -2 19 1 4 3 -2 6 -13 5 -11 0 -14 -3 -6 -6z"/>
<path d="M4840 6937 c-333 -165 -870 -432 -1194 -594 l-588 -292 -47 25 c-25
14 -53 32 -61 38 -8 7 -35 24 -60 38 -25 14 -106 62 -180 108 -74 45 -150 91
-168 101 -18 11 -45 28 -60 38 -15 10 -65 41 -112 69 -111 64 -415 248 -460
276 -19 13 -68 42 -107 66 -41 24 -70 47 -66 53 3 6 1 7 -6 3 -6 -4 -41 10
-79 32 -109 63 -336 203 -352 217 -8 6 -23 15 -33 18 -10 4 -43 23 -73 43 -30
20 -57 34 -59 32 -11 -11 29 -86 53 -101 38 -23 111 -93 87 -83 -26 11 -33 10
-75 -6 -71 -27 -73 -30 -59 -77 9 -32 24 -50 55 -72 24 -16 45 -33 49 -38 3
-5 -17 -17 -45 -26 -27 -9 -50 -22 -50 -29 0 -31 53 -85 155 -158 93 -67 844
-574 1064 -718 38 -25 188 -124 333 -221 144 -96 285 -189 313 -207 l50 -31
140 73 c134 70 220 116 330 176 28 15 109 58 180 95 72 37 144 76 160 85 17
10 93 50 170 91 77 40 152 80 167 88 26 15 31 14 130 -36 57 -29 202 -107 323
-174 356 -196 674 -369 680 -369 2 0 55 24 117 54 100 47 215 102 356 168 l43
21 -98 52 c-54 28 -291 151 -528 273 -508 261 -516 265 -512 276 1 4 45 31 97
58 311 165 508 273 525 289 22 20 72 106 65 112 -3 3 -38 20 -79 39 l-73 35
58 36 c44 27 66 49 87 86 31 56 29 61 -11 32 -46 -32 -637 -337 -629 -324 4 6
-11 10 -36 10 -23 0 -31 -2 -17 -4 14 -3 28 -8 33 -12 4 -4 -61 -42 -144 -85
-110 -57 -154 -75 -162 -67 -14 14 -37 14 -37 1 0 -5 6 -7 14 -4 8 3 17 1 20
-4 3 -5 -21 -24 -53 -41 -62 -33 -101 -42 -67 -16 11 8 15 15 9 15 -13 0 -35
-25 -27 -32 3 -3 -46 -32 -108 -63 -62 -32 -177 -91 -256 -132 -124 -64 -146
-72 -160 -61 -15 12 -16 11 -4 -4 12 -15 7 -20 -48 -48 -40 -20 -69 -29 -83
-25 -16 5 -18 4 -8 -3 20 -14 -122 -85 -152 -77 -15 4 -18 3 -9 -3 10 -7 8
-12 -10 -24 -52 -34 -129 -68 -140 -62 -7 5 -8 2 -3 -6 6 -10 4 -12 -9 -7 -9
4 -14 3 -11 -2 6 -11 -114 -75 -123 -66 -3 3 -1 5 5 5 6 0 13 7 17 15 4 13 2
13 -14 5 -25 -14 -41 -13 -38 3 2 7 -9 13 -27 14 l-30 2 30 -9 c17 -4 23 -8
15 -9 -11 -1 -8 -7 10 -20 l24 -19 -45 -22 -44 -22 -90 54 c-50 29 -99 61
-109 70 -11 10 -25 18 -31 18 -6 0 -35 16 -65 36 -29 19 -106 67 -169 105 -64
39 -161 98 -216 133 -55 34 -137 85 -183 112 -147 87 -181 108 -280 170 -108
68 -129 81 -255 155 -48 28 -87 56 -87 62 0 6 -3 8 -6 4 -3 -3 -25 6 -48 20
-112 70 -135 87 -129 96 4 6 0 8 -9 4 -9 -3 -38 8 -66 26 -28 18 -58 37 -69
43 -16 10 -14 11 14 10 17 0 29 -4 27 -7 -7 -13 46 -52 76 -55 18 -2 29 0 25
6 -3 5 6 17 20 26 13 9 22 20 19 25 -3 5 2 6 11 3 9 -4 13 -9 11 -12 -3 -3 -1
-11 5 -19 9 -9 8 -13 0 -13 -6 0 -11 5 -11 10 0 6 -5 10 -11 10 -6 0 -8 -9 -3
-22 6 -19 5 -21 -8 -11 -11 10 -14 7 -13 -15 0 -23 4 -27 27 -25 17 1 25 -3
22 -10 -6 -16 52 -51 71 -43 9 3 12 0 8 -10 -6 -17 -3 -17 37 0 20 8 28 16 21
20 -6 4 -15 5 -21 1 -12 -7 -60 5 -60 15 0 16 80 1 115 -20 37 -23 46 -36 18
-25 -13 4 -15 3 -7 -5 10 -10 44 -4 44 9 0 15 -98 65 -133 67 -38 2 -66 14
-34 14 11 0 14 5 10 16 -4 11 -13 14 -31 9 -22 -5 -24 -4 -13 9 10 12 9 16 -6
25 -10 6 -14 11 -9 11 14 0 76 -41 76 -51 0 -5 7 -9 15 -9 8 0 68 -34 132 -75
146 -94 340 -215 438 -275 41 -25 107 -65 147 -90 40 -25 85 -51 99 -58 15 -7
36 -22 47 -33 12 -10 23 -19 26 -19 6 0 253 -152 357 -220 35 -23 63 -46 61
-52 -1 -5 2 -7 7 -4 5 3 43 -15 86 -41 l76 -47 102 53 c734 380 978 502 989
495 6 -4 8 -3 5 3 -8 13 38 34 58 27 11 -5 13 -2 9 9 -4 12 3 17 30 22 20 4
34 10 31 14 -4 7 71 41 123 56 12 4 20 11 17 16 -4 5 0 10 7 10 7 1 24 3 38 4
27 2 80 22 80 29 0 3 -14 0 -31 -6 -16 -6 -32 -9 -34 -6 -7 7 199 108 220 108
8 0 15 4 15 8 0 4 33 23 73 42 39 19 74 37 77 41 3 3 16 10 30 14 13 4 31 14
39 23 10 10 16 11 19 3 2 -6 8 -11 13 -11 4 0 6 6 3 14 -7 18 27 30 59 21 17
-5 18 -4 7 4 -17 12 -17 13 37 40 41 21 71 29 45 12 -9 -5 -3 -8 17 -7 26 1
29 3 16 12 -13 10 -6 17 45 43 33 17 60 27 60 22 0 -6 6 -8 14 -5 8 3 23 1 34
-5 20 -11 62 -4 62 10 0 4 -15 5 -34 2 -23 -4 -35 -1 -39 9 -7 21 1 29 66 68
41 24 65 47 79 73 11 22 18 40 16 42 -2 2 -275 -132 -608 -298z m-3450 21 c0
-4 -20 5 -45 19 -25 13 -45 29 -45 33 0 11 89 -41 90 -52z m-193 26 c-3 -3
-12 -4 -19 -1 -8 3 -5 6 6 6 11 1 17 -2 13 -5z m60 0 c-3 -3 -12 -4 -19 -1 -8
3 -5 6 6 6 11 1 17 -2 13 -5z m-44 -34 c15 -7 27 -17 27 -22 0 -10 -25 3 -55
27 -22 18 -15 17 28 -5z m62 -19 c-6 -5 -25 10 -25 20 0 5 6 4 14 -3 8 -7 12
-15 11 -17z m125 -10 c14 -12 20 -21 15 -21 -6 0 -26 14 -45 30 -37 33 -13 25
30 -9z m2800 -795 c0 -2 -7 -7 -16 -10 -8 -3 -12 -2 -9 4 6 10 25 14 25 6z
m-280 -146 c-8 -5 -19 -10 -25 -10 -5 0 -3 5 5 10 8 5 20 10 25 10 6 0 3 -5
-5 -10z m-50 -24 c0 -2 -7 -7 -16 -10 -8 -3 -12 -2 -9 4 6 10 25 14 25 6z
m-93 -52 c-3 -3 -12 -4 -19 -1 -8 3 -5 6 6 6 11 1 17 -2 13 -5z m-118 -57 c-2
-1 -13 -9 -24 -17 -19 -14 -19 -14 -6 3 7 9 18 17 24 17 6 0 8 -1 6 -3z m-459
-252 c-25 -13 -49 -24 -55 -24 -5 0 10 11 35 24 25 13 50 24 55 24 6 0 -10
-11 -35 -24z m-85 -13 c-3 -3 -11 0 -18 7 -9 10 -8 11 6 5 10 -3 15 -9 12 -12z
m5 -32 c-8 -5 -19 -10 -25 -10 -5 0 -3 5 5 10 8 5 20 10 25 10 6 0 3 -5 -5
-10z m-43 -16 c-3 -3 -12 -4 -19 -1 -8 3 -5 6 6 6 11 1 17 -2 13 -5z"/>
<path d="M1236 7165 c10 -8 23 -15 28 -15 6 0 1 7 -10 15 -10 8 -23 15 -28 15
-6 0 -1 -7 10 -15z"/>
<path d="M5307 7059 c7 -7 15 -10 18 -7 3 3 -2 9 -12 12 -14 6 -15 5 -6 -5z"/>
<path d="M5366 7024 c-4 -9 -4 -19 -1 -22 3 -3 5 0 5 7 0 8 6 11 16 7 10 -4
14 -1 12 6 -7 19 -25 20 -32 2z"/>
<path d="M1490 7021 c0 -10 19 -25 25 -20 1 2 -3 10 -11 17 -8 7 -14 8 -14 3z"/>
<path d="M5224 7019 c-3 -5 2 -6 10 -3 30 12 16 -5 -24 -27 -34 -19 -37 -24
-23 -34 14 -11 13 -13 -11 -19 -15 -4 -24 -11 -21 -16 3 -6 -2 -10 -12 -10
-15 0 -16 -2 -3 -10 10 -6 16 -6 18 0 2 6 15 10 29 10 19 0 24 4 19 16 -4 11
-1 14 12 10 19 -6 71 15 109 45 19 14 21 18 7 23 -9 3 -24 6 -35 6 -10 0 -19
3 -19 8 0 10 -49 12 -56 1z m106 -24 c0 -13 -98 -53 -110 -45 -24 15 8 39 58
43 26 2 48 4 50 5 1 1 2 0 2 -3z m-133 -71 c-3 -3 -12 -4 -19 -1 -8 3 -5 6 6
6 11 1 17 -2 13 -5z"/>
<path d="M5118 6943 c6 -2 10 -9 6 -14 -9 -15 2 -10 16 6 10 13 9 15 -11 14
-13 0 -18 -3 -11 -6z"/>
<path d="M4730 6910 c-9 -6 -10 -10 -3 -10 6 0 15 5 18 10 8 12 4 12 -15 0z"/>
<path d="M5085 6910 c4 -6 11 -8 16 -5 14 9 11 15 -7 15 -8 0 -12 -5 -9 -10z"/>
<path d="M4480 6890 c0 -5 7 -10 16 -10 8 0 12 5 9 10 -3 6 -10 10 -16 10 -5
0 -9 -4 -9 -10z"/>
<path d="M5105 6874 c-13 -21 -51 -24 -47 -4 2 8 0 11 -5 7 -4 -5 -9 -13 -9
-18 -1 -5 -2 -13 -3 -19 0 -5 -8 -7 -16 -4 -8 4 -15 1 -15 -5 0 -6 6 -11 13
-11 20 1 117 57 110 64 -10 10 -17 7 -28 -10z"/>
<path d="M4951 6869 c-21 -8 -37 -28 -24 -30 40 -7 58 -4 74 10 11 8 19 19 19
23 0 9 -41 7 -69 -3z"/>
<path d="M4836 6795 c-19 -14 -18 -15 16 -15 54 0 56 -18 4 -32 -26 -7 -46
-16 -46 -20 0 -4 24 1 53 13 28 11 60 23 70 26 9 3 17 12 17 20 0 10 -6 13
-16 9 -9 -3 -18 -6 -20 -6 -3 0 -2 -4 1 -10 3 -5 1 -10 -6 -10 -6 0 -9 8 -6
20 4 16 0 20 -21 20 -15 0 -36 -7 -46 -15z"/>
<path d="M4800 6760 c0 -5 4 -10 9 -10 6 0 13 5 16 10 3 6 -1 10 -9 10 -9 0
-16 -4 -16 -10z"/>
<path d="M1583 6744 c-18 -8 19 -41 40 -36 9 2 17 9 17 14 0 6 -7 8 -15 4 -8
-3 -14 0 -12 6 2 12 -13 18 -30 12z"/>
<path d="M4688 6723 c7 -3 16 -2 19 1 4 3 -2 6 -13 5 -11 0 -14 -3 -6 -6z"/>
<path d="M4724 6708 c-4 -7 -4 -10 0 -6 5 4 19 3 32 -2 26 -10 57 -3 48 11 -8
14 -72 11 -80 -3z"/>
<path d="M1660 6706 c0 -2 9 -6 20 -9 11 -3 18 -1 14 4 -5 9 -34 13 -34 5z"/>
<path d="M1665 6680 c-4 -6 -3 -10 2 -9 4 1 22 -4 38 -11 17 -7 39 -12 49 -12
11 1 27 -3 38 -9 10 -5 18 -7 18 -5 0 3 -18 15 -41 27 -23 11 -38 16 -34 10 9
-15 -1 -14 -35 4 -19 10 -31 11 -35 5z"/>
<path d="M4611 6659 c17 -11 106 -12 112 -1 3 4 -24 8 -61 9 -41 1 -60 -2 -51
-8z"/>
<path d="M4625 6630 c3 -5 8 -10 11 -10 2 0 4 5 4 10 0 6 -5 10 -11 10 -5 0
-7 -4 -4 -10z"/>
<path d="M4531 6621 c-10 -6 -8 -10 5 -15 13 -5 14 -10 6 -18 -8 -8 -15 -8
-26 1 -8 7 -17 8 -20 3 -8 -14 36 -23 51 -11 6 6 18 7 24 3 8 -5 9 -3 4 6 -6
10 -4 12 9 7 11 -5 15 -3 10 5 -5 8 -2 9 10 5 11 -4 15 -3 11 4 -4 6 -14 8
-22 5 -8 -3 -22 -2 -32 3 -9 5 -23 6 -30 2z m34 -19 c-3 -3 -11 0 -18 7 -9 10
-8 11 6 5 10 -3 15 -9 12 -12z"/>
<path d="M1786 6609 c5 -9 54 -8 54 0 0 4 -13 7 -29 6 -16 0 -27 -3 -25 -6z"/>
<path d="M3288 6573 c7 -3 16 -2 19 1 4 3 -2 6 -13 5 -11 0 -14 -3 -6 -6z"/>
<path d="M1875 6550 c3 -5 8 -10 11 -10 2 0 4 5 4 10 0 6 -5 10 -11 10 -5 0
-7 -4 -4 -10z"/>
<path d="M4485 6550 c3 -5 8 -10 11 -10 2 0 4 5 4 10 0 6 -5 10 -11 10 -5 0
-7 -4 -4 -10z"/>
<path d="M1995 6480 c27 -12 43 -12 25 0 -8 5 -22 9 -30 9 -10 0 -8 -3 5 -9z"/>
<path d="M4338 6483 c6 -2 18 -2 25 0 6 3 1 5 -13 5 -14 0 -19 -2 -12 -5z"/>
<path d="M4248 6433 c7 -3 16 -2 19 1 4 3 -2 6 -13 5 -11 0 -14 -3 -6 -6z"/>
<path d="M4040 6420 c-9 -6 -10 -10 -3 -10 6 0 15 5 18 10 8 12 4 12 -15 0z"/>
<path d="M2290 6366 c0 -2 7 -7 16 -10 8 -3 12 -2 9 4 -6 10 -25 14 -25 6z"/>
<path d="M2190 6356 c0 -2 7 -7 16 -10 8 -3 12 -2 9 4 -6 10 -25 14 -25 6z"/>
<path d="M3918 6263 c7 -3 16 -2 19 1 4 3 -2 6 -13 5 -11 0 -14 -3 -6 -6z"/>
<path d="M2445 6240 c3 -5 11 -10 16 -10 6 0 7 5 4 10 -3 6 -11 10 -16 10 -6
0 -7 -4 -4 -10z"/>
<path d="M3620 6150 c20 -13 33 -13 25 0 -3 6 -14 10 -23 10 -15 0 -15 -2 -2
-10z"/>
<path d="M3675 6130 c-3 -6 1 -7 9 -4 18 7 21 14 7 14 -6 0 -13 -4 -16 -10z"/>
<path d="M910 5885 l0 -105 25 0 c23 0 25 4 25 40 l0 40 45 0 45 0 0 -40 c0
-36 3 -40 25 -40 l25 0 0 106 c0 104 0 105 -22 102 -19 -2 -24 -10 -26 -45
l-3 -43 -45 0 -44 0 0 45 c0 41 -2 45 -25 45 l-25 0 0 -105z"/>
<path d="M1160 5885 c0 -98 1 -105 20 -105 18 0 20 7 20 63 l0 62 31 -52 c17
-29 34 -53 39 -53 5 0 22 24 39 53 l31 52 0 -62 c0 -56 2 -63 20 -63 19 0 20
7 20 105 0 93 -2 105 -17 105 -12 0 -30 -23 -53 -64 -19 -36 -38 -62 -42 -60
-4 2 -22 31 -40 64 -21 38 -39 60 -50 60 -16 0 -18 -11 -18 -105z"/>
<path d="M1438 5984 c-5 -4 -8 -52 -8 -106 0 -98 0 -98 25 -98 21 0 25 5 25
30 0 25 4 30 24 30 17 0 31 -10 43 -30 11 -19 25 -30 40 -30 l23 0 -20 32
c-19 31 -19 32 1 56 24 31 24 63 0 93 -15 19 -30 24 -82 27 -35 2 -67 0 -71
-4z m117 -69 c0 -27 -3 -30 -37 -33 -38 -3 -38 -3 -38 33 0 36 0 36 38 33 34
-3 37 -6 37 -33z"/>
<path d="M2848 5983 c7 -3 16 -2 19 1 4 3 -2 6 -13 5 -11 0 -14 -3 -6 -6z"/>
<path d="M3324 5958 c9 -5 23 -5 32 0 12 6 7 9 -16 9 -23 0 -28 -3 -16 -9z"/>
<path d="M3146 5916 c3 -8 12 -12 21 -9 12 5 12 7 1 14 -20 13 -28 11 -22 -5z"/>
<path d="M3260 5920 c0 -5 5 -10 11 -10 5 0 7 5 4 10 -3 6 -8 10 -11 10 -2 0
-4 -4 -4 -10z"/>
<path d="M3220 5900 c-9 -6 -10 -10 -3 -10 6 0 15 5 18 10 8 12 4 12 -15 0z"/>
<path d="M1025 5640 c-3 -5 -1 -10 4 -10 6 0 11 5 11 10 0 6 -2 10 -4 10 -3 0
-8 -4 -11 -10z"/>
<path d="M1150 5600 c0 -27 5 -50 10 -50 6 0 10 11 10 25 0 16 6 25 15 25 9 0
15 -9 15 -25 0 -14 5 -25 10 -25 15 0 12 46 -5 60 -8 6 -19 9 -25 5 -6 -3 -10
3 -10 14 0 12 -4 21 -10 21 -5 0 -10 -22 -10 -50z"/>
<path d="M1470 5640 c0 -5 5 -10 10 -10 6 0 10 5 10 10 0 6 -4 10 -10 10 -5 0
-10 -4 -10 -10z"/>
<path d="M920 5595 c0 -25 5 -45 10 -45 6 0 10 7 10 15 0 8 9 15 20 15 11 0
20 -7 20 -15 0 -8 5 -15 10 -15 6 0 10 20 10 45 0 25 -4 45 -10 45 -5 0 -10
-9 -10 -20 0 -13 -7 -20 -20 -20 -13 0 -20 7 -20 20 0 11 -4 20 -10 20 -5 0
-10 -20 -10 -45z"/>
<path d="M1270 5595 c0 -25 5 -45 10 -45 6 0 10 10 10 23 1 21 1 22 15 3 15
-20 15 -20 30 0 14 19 14 18 15 -3 0 -13 5 -23 10 -23 6 0 10 20 10 45 0 50
-14 59 -32 20 -6 -14 -14 -25 -18 -25 -4 0 -13 11 -20 25 -20 37 -30 30 -30
-20z"/>
<path d="M1576 5622 c-10 -16 10 -67 27 -70 9 -2 17 1 17 7 0 6 -5 11 -10 11
-6 0 -9 12 -8 26 3 26 -15 44 -26 26z"/>
<path d="M1020 5585 c0 -19 5 -35 10 -35 6 0 10 16 10 35 0 19 -4 35 -10 35
-5 0 -10 -16 -10 -35z"/>
<path d="M1060 5604 c-7 -8 -9 -21 -4 -31 4 -10 8 -22 8 -28 1 -15 35 -18 51
-5 8 7 15 27 15 45 0 29 -3 32 -29 33 -16 0 -35 -6 -41 -14z m48 -16 c-7 -19
-38 -22 -38 -4 0 10 9 16 21 16 12 0 19 -5 17 -12z"/>
<path d="M1389 5604 c-9 -11 -10 -20 -2 -32 14 -22 53 -22 67 1 9 15 7 21 -8
33 -25 18 -40 18 -57 -2z m51 -19 c0 -8 -9 -15 -20 -15 -11 0 -20 7 -20 15 0
8 9 15 20 15 11 0 20 -7 20 -15z"/>
<path d="M1470 5585 c0 -19 5 -35 10 -35 6 0 10 16 10 35 0 19 -4 35 -10 35
-5 0 -10 -16 -10 -35z"/>
<path d="M1511 5611 c-17 -11 -6 -31 17 -32 10 -1 7 -4 -8 -9 -22 -6 -23 -8
-7 -15 20 -8 47 0 47 15 0 6 -10 15 -22 20 -18 7 -19 9 -5 9 9 1 17 6 17 11 0
12 -20 13 -39 1z"/>
<path d="M1160 5490 c0 -5 5 -10 11 -10 5 0 7 5 4 10 -3 6 -8 10 -11 10 -2 0
-4 -4 -4 -10z"/>
<path d="M920 5445 c0 -42 13 -60 23 -32 3 10 9 10 26 0 26 -16 39 -17 24 -2
-9 9 -9 16 0 29 15 25 -7 50 -44 50 -28 0 -29 -2 -29 -45z m60 10 c0 -8 -9
-15 -20 -15 -11 0 -20 7 -20 15 0 8 9 15 20 15 11 0 20 -7 20 -15z"/>
<path d="M1256 5472 c-10 -16 10 -67 27 -70 9 -2 17 1 17 7 0 6 -4 11 -10 11
-5 0 -10 7 -10 15 0 8 5 15 11 15 8 0 8 5 -1 15 -14 17 -26 19 -34 7z"/>
<path d="M1022 5458 c-29 -29 6 -73 40 -52 9 6 5 10 -12 15 l-25 7 28 1 c15 1
27 5 27 9 0 12 -22 32 -35 32 -6 0 -16 -5 -23 -12z m35 -14 c-3 -3 -12 -4 -19
-1 -8 3 -5 6 6 6 11 1 17 -2 13 -5z"/>
<path d="M1097 5463 c-13 -12 -7 -32 11 -36 16 -4 16 -5 0 -6 -21 -1 -24 -21
-4 -21 22 0 46 11 46 21 0 5 -10 14 -22 19 -18 7 -19 9 -5 9 9 1 17 6 17 11 0
11 -33 14 -43 3z"/>
<path d="M1160 5435 c0 -19 5 -35 10 -35 6 0 10 16 10 35 0 19 -4 35 -10 35
-5 0 -10 -16 -10 -35z"/>
<path d="M1200 5460 c-13 -9 -13 -12 3 -24 18 -14 18 -14 0 -19 -17 -4 -17 -4
0 -12 20 -8 47 0 47 15 0 6 -10 15 -22 20 -18 7 -19 9 -5 9 9 1 17 6 17 11 0
13 -21 13 -40 0z"/>
<path d="M1325 5460 c-3 -5 4 -10 17 -11 23 -1 22 -1 -2 -8 -37 -10 -32 -36 8
-38 27 -1 32 2 32 21 0 36 -39 62 -55 36z m32 -36 c-3 -3 -12 -4 -19 -1 -8 3
-5 6 6 6 11 1 17 -2 13 -5z"/>
<path d="M1390 5434 c0 -19 5 -34 10 -34 6 0 10 11 10 25 0 16 6 25 15 25 9 0
15 -9 15 -25 0 -14 5 -25 10 -25 11 0 14 59 3 61 -62 10 -63 9 -63 -27z"/>
<path d="M1490 5455 c-23 -28 17 -72 43 -46 8 8 5 11 -11 11 -13 0 -22 6 -22
15 0 8 9 15 21 15 11 0 17 5 14 10 -9 15 -31 12 -45 -5z"/>
<path d="M1559 5454 c-16 -20 -1 -48 30 -52 25 -4 29 15 4 21 -14 4 -12 5 5 6
25 1 28 11 10 29 -16 16 -33 15 -49 -4z m38 -10 c-3 -3 -12 -4 -19 -1 -8 3 -5
6 6 6 11 1 17 -2 13 -5z"/>
<path d="M5280 5372 c0 -53 16 -77 75 -113 31 -19 71 -47 87 -62 33 -31 40
-31 32 0 -4 13 -11 20 -20 16 -8 -3 -14 -1 -14 4 0 6 -10 15 -22 22 -13 6 -16
10 -7 7 9 -2 22 0 30 5 12 8 12 11 -1 20 -11 8 -8 9 15 4 38 -8 29 0 -60 55
-38 24 -80 50 -92 58 -22 14 -23 13 -23 -16z m130 -74 c0 -4 -7 -8 -16 -8 -8
0 -13 4 -9 9 3 5 -4 12 -15 16 -11 3 -20 11 -20 16 0 6 14 2 30 -8 17 -9 30
-21 30 -25z"/>
<path d="M5460 5240 c0 -7 24 -20 36 -20 13 0 1 19 -16 23 -11 3 -20 2 -20 -3z"/>
<path d="M5521 5247 c2 -1 13 -9 24 -17 19 -14 19 -14 6 3 -7 9 -18 17 -24 17
-6 0 -8 -1 -6 -3z"/>
<path d="M9240 5199 c0 -5 5 -7 10 -4 6 3 10 8 10 11 0 2 -4 4 -10 4 -5 0 -10
-5 -10 -11z"/>
<path d="M5665 5160 c3 -5 11 -10 16 -10 6 0 7 5 4 10 -3 6 -11 10 -16 10 -6
0 -7 -4 -4 -10z"/>
<path d="M5520 5145 c0 -9 61 -36 73 -32 7 2 -2 11 -20 20 -32 17 -53 22 -53
12z"/>
<path d="M5772 5095 c20 -14 42 -25 47 -25 6 0 11 -7 11 -15 0 -8 7 -15 15
-15 28 0 15 15 -39 48 -64 38 -87 43 -34 7z"/>
<path d="M5614 5091 c3 -5 15 -11 26 -14 17 -4 19 -3 9 9 -12 15 -44 20 -35 5z"/>
<path d="M5741 5076 c2 -2 15 -9 29 -16 23 -12 24 -12 11 3 -7 10 -20 17 -29
17 -8 0 -13 -2 -11 -4z"/>
<path d="M5670 5061 c0 -13 62 -41 76 -33 9 5 -1 12 -31 23 -25 9 -45 14 -45
10z"/>
<path d="M5240 5029 c0 -11 4 -17 10 -14 6 4 8 -5 4 -22 -4 -24 0 -32 30 -51
19 -13 40 -21 45 -17 6 3 9 0 6 -7 -3 -8 14 -22 43 -35 l47 -23 -30 28 c-42
37 -74 78 -55 68 8 -4 5 2 -8 13 -13 11 -21 25 -17 31 3 5 -1 10 -9 10 -9 0
-16 4 -16 8 0 5 -11 14 -25 20 -22 10 -25 9 -25 -9z"/>
<path d="M5947 4989 c7 -7 15 -10 18 -7 3 3 -2 9 -12 12 -14 6 -15 5 -6 -5z"/>
<path d="M6046 4935 c10 -8 24 -14 29 -14 6 0 1 6 -9 14 -11 8 -24 15 -30 15
-5 0 -1 -7 10 -15z"/>
<path d="M5920 4911 c0 -5 7 -12 16 -15 24 -9 27 -7 10 9 -17 17 -26 19 -26 6z"/>
<path d="M5237 4669 c-3 -12 -2 -31 3 -43 10 -28 68 -78 83 -73 6 2 22 -9 35
-25 13 -15 29 -28 34 -28 6 0 35 -18 65 -40 29 -23 53 -37 53 -32 0 4 -5 13
-11 19 -8 8 -7 13 1 18 16 10 31 -15 24 -38 -4 -13 2 -21 25 -30 17 -6 31 -15
31 -20 0 -4 4 -6 9 -2 5 3 30 -8 54 -25 25 -16 50 -30 57 -30 6 0 9 -4 6 -9
-9 -14 24 -22 45 -10 25 13 14 32 -15 25 -11 -3 -27 -1 -35 3 -9 6 -5 10 16
16 l28 7 -28 10 c-15 5 -25 13 -22 18 7 11 -14 25 -57 39 -20 7 -42 19 -49 27
-6 8 -20 12 -30 9 -16 -5 -34 9 -34 29 0 5 -15 10 -33 11 -20 2 -45 14 -61 29
-15 14 -32 26 -38 26 -10 0 -25 24 -27 45 -1 5 -17 20 -36 32 -19 13 -42 29
-50 36 -31 26 -38 27 -43 6z m348 -253 c10 4 21 1 26 -7 4 -8 16 -14 25 -14 9
0 20 -10 25 -22 10 -28 5 -28 -29 -5 -15 10 -42 24 -59 31 -18 8 -33 18 -33
23 0 6 5 6 14 -1 7 -6 21 -8 31 -5z"/>
<path d="M6380 4636 c0 -2 7 -7 16 -10 8 -3 12 -2 9 4 -6 10 -25 14 -25 6z"/>
<path d="M6745 4520 c3 -5 8 -10 11 -10 2 0 4 5 4 10 0 6 -5 10 -11 10 -5 0
-7 -4 -4 -10z"/>
<path d="M6664 4466 c11 -9 27 -16 35 -15 14 0 14 1 1 6 -8 3 -24 10 -35 15
-20 9 -20 9 -1 -6z"/>
<path d="M3260 4401 c-258 -143 -681 -374 -1260 -685 -343 -186 -627 -342
-631 -348 -16 -26 15 -65 91 -116 44 -30 80 -57 80 -60 0 -4 -34 -27 -76 -52
-41 -25 -82 -52 -90 -61 -23 -25 -3 -62 59 -107 29 -22 61 -52 70 -66 10 -14
23 -26 29 -26 6 0 25 -10 42 -23 17 -13 76 -54 131 -92 55 -37 114 -81 130
-96 17 -16 36 -29 41 -29 6 0 58 -32 115 -71 194 -134 294 -202 334 -231 136
-97 188 -135 255 -183 147 -107 193 -140 214 -154 11 -8 68 -49 126 -90 209
-151 250 -172 290 -151 20 11 248 200 340 284 63 56 105 93 169 146 68 56 87
72 131 110 19 17 82 70 139 118 57 48 152 128 210 177 58 50 174 146 257 215
83 69 212 175 285 235 73 61 173 149 221 197 81 80 129 112 595 404 279 174
522 324 540 332 19 9 32 19 31 24 -2 4 -64 48 -138 97 -74 50 -166 113 -205
140 -38 28 -76 50 -83 50 -8 1 -26 -7 -40 -18 -25 -18 -142 -89 -661 -404
l-214 -130 -31 16 c-17 9 -146 77 -286 150 -140 74 -313 165 -385 202 -71 37
-197 104 -280 148 -342 182 -393 207 -416 207 -13 0 -71 -26 -129 -59z"/>
<path d="M6754 4411 c4 -6 16 -16 28 -22 15 -8 18 -8 14 0 -4 6 -16 16 -28 22
-15 8 -18 8 -14 0z"/>
<path d="M6867 4339 c7 -7 15 -10 18 -7 3 3 -2 9 -12 12 -14 6 -15 5 -6 -5z"/>
<path d="M5770 4296 c0 -2 15 -13 33 -25 17 -11 26 -21 20 -21 -7 0 -13 -4
-13 -10 0 -5 6 -10 14 -10 8 0 16 -3 18 -7 4 -11 82 -63 93 -63 5 0 -13 14
-38 31 -45 29 -59 49 -36 49 5 0 7 -4 4 -10 -3 -5 3 -10 13 -10 11 0 22 -6 25
-14 3 -7 15 -16 27 -19 15 -4 3 12 -36 46 -32 29 -61 51 -66 50 -4 -2 -19 2
-33 7 -14 5 -25 8 -25 6z"/>
<path d="M7025 4290 c3 -5 8 -10 11 -10 2 0 4 5 4 10 0 6 -5 10 -11 10 -5 0
-7 -4 -4 -10z"/>
<path d="M5790 4260 c0 -5 5 -10 11 -10 5 0 7 5 4 10 -3 6 -8 10 -11 10 -2 0
-4 -4 -4 -10z"/>
<path d="M7005 4260 c3 -6 21 -17 38 -26 l32 -15 -28 25 c-28 26 -54 35 -42
16z"/>
<path d="M7100 4204 c0 -2 9 -8 20 -14 11 -6 20 -7 20 -2 0 6 -9 12 -20 15
-11 3 -20 3 -20 1z"/>
<path d="M5990 4170 c-9 -6 -10 -10 -3 -10 6 0 15 5 18 10 8 12 4 12 -15 0z"/>
<path d="M6025 4150 c3 -5 11 -10 16 -10 6 0 7 5 4 10 -3 6 -11 10 -16 10 -6
0 -7 -4 -4 -10z"/>
<path d="M5990 4135 c-7 -9 -8 -15 -2 -15 5 0 12 7 16 15 3 8 4 15 2 15 -2 0
-9 -7 -16 -15z"/>
<path d="M6010 4110 c-9 -6 -10 -10 -3 -10 6 0 15 5 18 10 8 12 4 12 -15 0z"/>
<path d="M6118 4093 c7 -3 16 -2 19 1 4 3 -2 6 -13 5 -11 0 -14 -3 -6 -6z"/>
<path d="M6100 4046 c0 -2 7 -7 16 -10 8 -3 12 -2 9 4 -6 10 -25 14 -25 6z"/>
<path d="M6185 4040 c-3 -5 -3 -15 1 -21 6 -11 23 6 24 24 0 10 -18 9 -25 -3z"/>
<path d="M6263 3985 c47 -48 68 -57 60 -25 -4 15 -11 19 -25 14 -12 -3 -18 -2
-15 3 4 6 -7 20 -23 31 -45 34 -44 26 3 -23z"/>
<path d="M6290 3920 c0 -5 5 -10 10 -10 6 0 10 5 10 10 0 6 -4 10 -10 10 -5 0
-10 -4 -10 -10z"/>
<path d="M8450 3795 c0 -98 1 -105 20 -105 18 0 20 7 20 63 l0 62 31 -52 c17
-29 34 -53 39 -53 5 0 21 23 37 52 l28 52 3 -62 c3 -54 6 -62 22 -62 19 0 20
8 20 105 0 93 -2 105 -17 105 -12 0 -30 -23 -53 -65 -19 -36 -37 -65 -40 -65
-3 0 -21 29 -39 65 -23 43 -41 65 -53 65 -16 0 -18 -11 -18 -105z"/>
<path d="M8720 3795 l0 -107 76 4 c72 3 78 5 106 37 26 29 30 39 25 74 -3 24
-16 50 -31 66 -22 22 -37 26 -101 29 l-75 4 0 -107z m142 48 c10 -9 18 -30 18
-46 0 -43 -25 -67 -72 -67 l-38 0 0 65 0 65 37 0 c20 0 45 -7 55 -17z"/>
<path d="M8970 3795 l0 -105 25 0 c22 0 25 4 25 35 0 35 0 35 45 35 38 0 45 3
45 20 0 17 -7 20 -45 20 -43 0 -45 1 -45 30 0 29 1 30 50 30 43 0 50 3 50 20
0 18 -7 20 -75 20 l-75 0 0 -105z"/>
<path d="M6426 3864 c-24 -23 -19 -28 8 -11 21 14 25 14 30 2 3 -9 12 -12 23
-8 17 6 17 6 1 -10 -12 -12 -26 -16 -45 -11 -21 4 -17 0 15 -16 25 -13 41 -28
38 -35 -3 -8 2 -11 15 -8 13 4 19 0 19 -10 0 -9 9 -21 20 -27 14 -7 20 -7 20
0 0 5 -5 10 -12 10 -9 0 -9 3 1 13 10 10 15 8 26 -7 8 -10 12 -23 9 -27 -3 -5
8 -9 25 -9 31 0 49 -14 31 -25 -17 -10 -1 -25 28 -26 l27 0 -25 -11 c-20 -9
-22 -12 -8 -15 9 -2 26 1 37 6 25 14 24 14 50 -8 12 -11 21 -26 19 -34 -4 -18
35 -55 85 -82 25 -13 33 -22 24 -27 -7 -5 1 -6 17 -2 19 5 31 2 37 -7 4 -8 16
-14 25 -14 10 0 19 -6 22 -13 2 -6 -3 -12 -12 -12 -19 0 -22 -20 -3 -21 6 0
29 -2 49 -4 30 -3 39 0 52 20 15 22 14 24 -20 40 -19 9 -39 13 -44 10 -5 -3
-21 5 -34 19 -13 14 -28 26 -35 26 -6 0 -19 4 -29 9 -9 6 -29 12 -44 15 -20 5
-25 11 -21 25 3 13 -1 21 -14 24 -16 4 -16 5 2 6 17 1 16 4 -9 20 -17 11 -34
17 -38 15 -11 -7 -39 16 -33 26 3 5 0 12 -6 16 -8 4 -9 3 -5 -4 4 -7 2 -12 -4
-12 -7 0 -14 9 -17 21 -3 12 -22 27 -44 36 -22 8 -39 19 -39 24 0 5 -9 9 -20
9 -11 0 -19 5 -17 12 1 6 -11 13 -27 14 -30 3 -79 41 -70 55 2 4 -9 15 -25 24
-37 19 -36 19 -55 -1z m394 -285 c0 -14 -17 -10 -23 5 -4 10 -1 13 9 9 7 -3
14 -9 14 -14z m200 -115 c0 -8 -5 -12 -10 -9 -6 4 -8 11 -5 16 9 14 15 11 15
-7z"/>
<path d="M6900 3572 c0 -12 23 -32 37 -32 22 0 15 16 -12 28 -14 6 -25 8 -25
4z"/>
<path d="M8300 3546 c0 -7 -9 -16 -20 -19 -45 -12 -31 -67 16 -67 22 0 24 4
24 50 0 28 -4 50 -10 50 -5 0 -10 -6 -10 -14z m0 -51 c0 -8 -7 -15 -15 -15 -8
0 -15 7 -15 15 0 8 7 15 15 15 8 0 15 -7 15 -15z"/>
<path d="M8340 3550 c0 -5 5 -10 10 -10 6 0 10 5 10 10 0 6 -4 10 -10 10 -5 0
-10 -4 -10 -10z"/>
<path d="M8965 3550 c-3 -5 1 -10 10 -10 9 0 13 5 10 10 -3 6 -8 10 -10 10 -2
0 -7 -4 -10 -10z"/>
<path d="M8050 3505 c0 -25 5 -45 10 -45 6 0 10 10 10 23 1 21 1 22 15 3 15
-20 15 -20 30 0 14 19 14 18 15 -3 0 -13 5 -23 10 -23 6 0 10 20 10 45 0 50
-11 58 -28 20 -6 -14 -15 -25 -20 -25 -5 0 -15 11 -22 25 -20 37 -30 30 -30
-20z"/>
<path d="M8630 3505 c0 -43 1 -45 29 -45 31 0 61 22 61 45 0 23 -30 45 -61 45
-28 0 -29 -2 -29 -45z m65 0 c0 -13 -8 -21 -22 -23 -19 -3 -23 1 -23 23 0 22
4 26 23 23 14 -2 22 -10 22 -23z"/>
<path d="M9006 3532 c-10 -17 10 -67 29 -71 16 -3 17 -1 7 12 -7 8 -11 25 -10
37 3 23 -15 39 -26 22z"/>
<path d="M8182 3518 c-29 -29 6 -73 40 -52 9 6 5 10 -12 15 l-25 7 28 1 c15 1
27 5 27 9 0 12 -22 32 -35 32 -6 0 -16 -5 -23 -12z m35 -14 c-3 -3 -12 -4 -19
-1 -8 3 -5 6 6 6 11 1 17 -2 13 -5z"/>
<path d="M8340 3495 c0 -19 5 -35 10 -35 6 0 10 16 10 35 0 19 -4 35 -10 35
-5 0 -10 -16 -10 -35z"/>
<path d="M8382 3498 c2 -28 8 -34 31 -36 25 -3 27 -1 27 32 0 20 -4 36 -10 36
-5 0 -10 -11 -10 -25 0 -14 -4 -25 -10 -25 -5 0 -10 11 -10 25 0 14 -5 25 -11
25 -6 0 -9 -14 -7 -32z"/>
<path d="M8460 3495 c0 -19 5 -35 10 -35 6 0 10 11 10 25 0 16 6 25 15 25 9 0
15 -9 15 -25 0 -14 5 -25 10 -25 6 0 10 11 10 25 0 16 6 25 15 25 9 0 15 -9
15 -25 0 -14 5 -25 10 -25 14 0 12 47 -2 56 -7 5 -34 9 -60 11 l-48 3 0 -35z"/>
<path d="M8742 3518 c-29 -29 6 -73 40 -52 9 6 5 10 -12 15 l-25 7 28 1 c15 1
27 5 27 9 0 12 -22 32 -35 32 -6 0 -16 -5 -23 -12z m35 -14 c-3 -3 -12 -4 -19
-1 -8 3 -5 6 6 6 11 1 17 -2 13 -5z"/>
<path d="M8810 3495 c0 -19 5 -35 10 -35 6 0 10 11 10 25 0 16 6 25 15 25 9 0
15 -9 15 -25 0 -14 5 -25 10 -25 17 0 12 57 -6 64 -39 15 -54 7 -54 -29z"/>
<path d="M8894 3518 c-4 -6 1 -17 10 -24 16 -12 16 -13 -1 -17 -17 -4 -17 -4
0 -12 20 -8 47 0 47 15 0 6 -10 15 -22 20 -18 7 -19 9 -5 9 9 1 17 6 17 11 0
14 -37 13 -46 -2z"/>
<path d="M8970 3495 c0 -19 5 -35 10 -35 6 0 10 16 10 35 0 19 -4 35 -10 35
-5 0 -10 -16 -10 -35z"/>
<path d="M9066 3498 c11 -22 13 -33 5 -36 -14 -5 -15 -22 -1 -22 13 0 50 60
50 80 -1 11 -4 10 -16 -5 -14 -19 -16 -19 -25 -2 -18 31 -30 18 -13 -15z"/>
<path d="M7115 3428 c4 -11 -3 -17 -26 -22 -27 -5 -30 -8 -19 -21 7 -8 20 -15
29 -16 11 0 12 -2 3 -6 -10 -4 -10 -8 -2 -18 8 -10 18 -11 36 -5 14 6 24 6 24
0 0 -4 -8 -11 -17 -13 -13 -3 -11 -5 7 -7 14 -1 29 -2 34 -1 5 1 6 -4 3 -12
-6 -16 9 -45 18 -35 9 9 -14 88 -26 88 -6 0 -7 5 -4 11 10 16 45 -20 45 -47 0
-21 16 -41 26 -32 2 3 1 18 -2 34 -4 21 -19 39 -47 57 -23 15 -52 35 -65 44
-19 13 -22 13 -17 1z m32 -64 c-3 -3 -12 -4 -19 -1 -8 3 -5 6 6 6 11 1 17 -2
13 -5z"/>
<path d="M8490 3400 c0 -5 5 -10 10 -10 6 0 10 5 10 10 0 6 -4 10 -10 10 -5 0
-10 -4 -10 -10z"/>
<path d="M8530 3360 c0 -46 2 -50 24 -50 47 0 61 55 16 67 -11 3 -20 12 -20
19 0 8 -4 14 -10 14 -5 0 -10 -22 -10 -50z m50 -15 c0 -8 -7 -15 -15 -15 -8 0
-15 7 -15 15 0 8 7 15 15 15 8 0 15 -7 15 -15z"/>
<path d="M8750 3360 c0 -46 2 -50 24 -50 47 0 61 55 16 67 -11 3 -20 12 -20
19 0 8 -4 14 -10 14 -5 0 -10 -22 -10 -50z m50 -15 c0 -8 -7 -15 -15 -15 -8 0
-15 7 -15 15 0 8 7 15 15 15 8 0 15 -7 15 -15z"/>
<path d="M9100 3391 c0 -14 -5 -18 -18 -14 -10 2 -25 -3 -32 -12 -20 -24 0
-50 39 -52 31 -1 31 -1 31 48 0 27 -4 49 -10 49 -5 0 -10 -9 -10 -19z m0 -46
c0 -8 -9 -15 -20 -15 -11 0 -20 7 -20 15 0 8 9 15 20 15 11 0 20 -7 20 -15z"/>
<path d="M8410 3355 c0 -25 5 -45 10 -45 6 0 10 7 10 15 0 8 9 15 20 15 11 0
20 5 20 10 0 6 -9 10 -20 10 -11 0 -20 5 -20 10 0 6 11 10 25 10 14 0 25 5 25
10 0 6 -16 10 -35 10 -35 0 -35 0 -35 -45z"/>
<path d="M8490 3345 c0 -19 5 -35 10 -35 6 0 10 16 10 35 0 19 -4 35 -10 35
-5 0 -10 -16 -10 -35z"/>
<path d="M8620 3345 c0 -19 5 -35 10 -35 6 0 10 11 10 25 0 14 5 25 10 25 6 0
10 5 10 10 0 6 -9 10 -20 10 -16 0 -20 -7 -20 -35z"/>
<path d="M8669 3364 c-16 -20 -1 -48 30 -52 25 -4 29 15 4 21 -14 4 -12 5 5 6
25 1 28 11 10 29 -16 16 -33 15 -49 -4z m38 -10 c-3 -3 -12 -4 -19 -1 -8 3 -5
6 6 6 11 1 17 -2 13 -5z"/>
<path d="M8840 3366 c-27 -33 18 -72 48 -42 13 13 14 20 6 34 -15 23 -38 26
-54 8z m40 -21 c0 -8 -7 -15 -15 -15 -8 0 -15 7 -15 15 0 8 7 15 15 15 8 0 15
-7 15 -15z"/>
<path d="M8920 3370 c0 -5 10 -10 23 -11 21 -1 21 -1 -3 -8 -37 -10 -32 -36 8
-38 27 -1 32 2 32 21 0 12 -5 27 -12 34 -15 15 -48 16 -48 2z m40 -34 c0 -11
-19 -15 -25 -6 -3 5 1 10 9 10 9 0 16 -2 16 -4z"/>
<path d="M8990 3344 c0 -19 5 -34 10 -34 6 0 10 9 10 19 0 11 5 23 10 26 16
10 11 21 -10 22 -16 1 -20 -4 -20 -33z"/>
<path d="M5045 2982 c-36 -32 -104 -90 -274 -233 -68 -57 -172 -144 -231 -194
-111 -93 -546 -466 -660 -565 -212 -185 -630 -539 -653 -554 -51 -34 -1 -66
-663 429 -243 182 -522 389 -619 460 -97 72 -269 199 -382 283 -114 83 -209
152 -212 152 -12 -1 117 -112 224 -193 61 -46 229 -173 375 -281 146 -108 321
-239 390 -291 69 -52 175 -131 235 -176 61 -46 144 -108 185 -139 400 -300
384 -289 425 -289 31 0 107 62 690 570 174 152 817 703 909 779 151 125 257
218 277 244 26 33 22 33 -16 -2z"/>
<path d="M1855 1959 c-11 -10 -141 -93 -288 -184 -148 -91 -302 -187 -343
-213 -75 -48 -75 -48 -49 -60 15 -7 30 -10 35 -7 4 3 21 -10 36 -28 16 -17 36
-32 45 -32 19 0 183 -130 238 -188 20 -21 47 -39 59 -40 14 -1 21 -6 17 -14
-6 -18 126 60 568 336 82 51 154 94 162 97 7 3 62 -29 122 -72 59 -42 124 -88
143 -102 l35 -24 -30 26 c-30 26 -655 476 -704 507 -24 15 -27 15 -46 -2z
m-660 -449 c3 -6 -1 -7 -9 -4 -18 7 -21 14 -7 14 6 0 13 -4 16 -10z"/>
<path d="M4040 1505 c0 -98 1 -105 20 -105 18 0 20 7 20 63 l0 62 31 -52 c17
-29 34 -53 39 -53 5 0 21 23 37 52 l28 52 3 -62 c3 -54 6 -62 22 -62 19 0 20
8 20 105 0 93 -2 105 -17 105 -11 0 -30 -22 -51 -60 -18 -33 -37 -60 -42 -60
-5 0 -23 27 -42 60 -21 38 -39 60 -50 60 -16 0 -18 -11 -18 -105z"/>
<path d="M4320 1505 l0 -105 25 0 c22 0 25 4 25 35 0 35 0 35 45 35 38 0 45 3
45 20 0 17 -7 20 -45 20 -43 0 -45 1 -45 30 0 29 1 30 50 30 43 0 50 3 50 20
0 18 -7 20 -75 20 l-75 0 0 -105z"/>
<path d="M4510 1505 c0 -98 1 -105 20 -105 18 0 20 7 20 63 l0 62 31 -52 c17
-29 34 -53 39 -53 5 0 22 24 39 53 l31 52 0 -62 c0 -56 2 -63 20 -63 19 0 20
7 20 105 0 93 -2 105 -17 105 -11 0 -30 -22 -51 -60 -18 -33 -37 -60 -42 -60
-5 0 -24 27 -42 60 -21 38 -40 60 -50 60 -16 0 -18 -12 -18 -105z"/>
<path d="M2640 1427 c0 -2 21 -18 48 -36 35 -25 40 -26 17 -6 -30 26 -65 49
-65 42z"/>
<path d="M3555 1348 l-40 -43 43 40 c39 36 47 45 39 45 -2 0 -21 -19 -42 -42z"/>
<path d="M2780 1327 c8 -9 101 -77 205 -151 184 -132 232 -155 250 -126 4 7
-2 9 -18 5 -14 -4 -36 -1 -49 6 -19 10 -246 169 -368 257 -19 14 -28 18 -20 9z"/>
<path d="M3392 1198 c-125 -117 -151 -143 -125 -126 26 17 225 208 217 208 -3
0 -45 -37 -92 -82z"/>
<path d="M4250 1210 c0 -27 5 -50 10 -50 6 0 10 23 10 50 0 28 -4 50 -10 50
-5 0 -10 -22 -10 -50z"/>
<path d="M4495 1250 c-3 -5 -1 -10 4 -10 6 0 11 5 11 10 0 6 -2 10 -4 10 -3 0
-8 -4 -11 -10z"/>
<path d="M4050 1205 c0 -25 5 -45 10 -45 6 0 10 10 10 23 1 21 1 21 15 3 16
-21 17 -21 33 9 11 19 11 18 12 -7 0 -16 5 -28 10 -28 6 0 10 20 10 45 0 50
-14 59 -32 20 -6 -14 -14 -25 -18 -25 -4 0 -13 11 -20 25 -20 37 -30 30 -30
-20z"/>
<path d="M4169 1214 c-16 -20 -1 -48 30 -52 28 -4 27 15 -1 21 -20 4 -19 4 5
6 30 1 37 25 11 35 -23 9 -30 8 -45 -10z m38 -10 c-3 -3 -12 -4 -19 -1 -8 3
-5 6 6 6 11 1 17 -2 13 -5z"/>
<path d="M4290 1220 c0 -5 8 -10 18 -11 12 0 11 -3 -6 -10 -30 -12 -23 -33 11
-37 24 -3 27 0 27 26 0 18 -6 32 -16 36 -23 9 -34 7 -34 -4z"/>
<path d="M4360 1194 c0 -19 5 -34 10 -34 6 0 10 11 10 25 0 16 6 25 15 25 9 0
15 -9 15 -25 0 -14 5 -25 10 -25 6 0 10 11 10 25 0 16 6 25 15 25 9 0 15 -9
15 -25 0 -14 5 -25 10 -25 14 0 12 47 -2 57 -7 4 -34 8 -60 9 l-48 1 0 -33z"/>
<path d="M4490 1195 c0 -19 5 -35 10 -35 6 0 10 16 10 35 0 19 -4 35 -10 35
-5 0 -10 -16 -10 -35z"/>
<path d="M4530 1194 c0 -19 5 -34 10 -34 6 0 10 11 10 25 0 16 6 25 15 25 9 0
15 -9 15 -25 0 -14 5 -25 11 -25 6 0 9 14 7 33 -3 28 -7 32 -35 34 -31 1 -33
-1 -33 -33z"/>
<path d="M4619 1214 c-16 -20 -1 -48 30 -52 28 -4 27 15 -1 21 -20 4 -19 4 5
6 30 1 37 25 11 35 -23 9 -30 8 -45 -10z m38 -10 c-3 -3 -12 -4 -19 -1 -8 3
-5 6 6 6 11 1 17 -2 13 -5z"/>
<path d="M1570 1170 c-9 -6 -10 -10 -3 -10 6 0 15 5 18 10 8 12 4 12 -15 0z"/>
<path d="M4410 1091 c0 -14 -5 -18 -18 -14 -10 2 -25 -3 -32 -12 -20 -24 0
-50 39 -52 31 -1 31 -1 31 48 0 27 -4 49 -10 49 -5 0 -10 -9 -10 -19z m0 -46
c0 -8 -9 -15 -20 -15 -11 0 -20 7 -20 15 0 8 9 15 20 15 11 0 20 -7 20 -15z"/>
<path d="M4050 1055 c0 -25 5 -45 10 -45 6 0 10 7 10 15 0 8 9 15 20 15 11 0
20 5 20 10 0 6 -9 10 -20 10 -11 0 -20 5 -20 10 0 6 9 10 20 10 11 0 20 5 20
10 0 6 -13 10 -30 10 -29 0 -30 -2 -30 -45z"/>
<path d="M4480 1055 c0 -25 5 -45 10 -45 6 0 10 10 10 23 1 21 1 21 15 3 16
-21 17 -21 33 9 11 19 11 18 12 -7 0 -16 5 -28 10 -28 6 0 10 20 10 45 0 50
-10 57 -30 20 -7 -14 -16 -25 -20 -25 -4 0 -13 11 -20 25 -20 37 -30 30 -30
-20z"/>
<path d="M4600 1055 c0 -43 1 -45 29 -45 31 0 61 22 61 45 0 23 -30 45 -61 45
-28 0 -29 -2 -29 -45z m65 0 c0 -13 -8 -21 -22 -23 -19 -3 -23 1 -23 23 0 22
4 26 23 23 14 -2 22 -10 22 -23z"/>
<path d="M4700 1055 c0 -25 5 -45 10 -45 6 0 10 7 10 15 0 8 9 15 20 15 11 0
20 5 20 10 0 6 -9 10 -20 10 -11 0 -20 5 -20 10 0 6 9 10 19 10 11 0 23 5 26
10 4 6 -8 10 -29 10 -36 0 -36 0 -36 -45z"/>
<path d="M4135 1070 c-3 -5 2 -10 12 -11 14 0 13 -2 -5 -10 -30 -12 -23 -33
11 -37 24 -3 27 0 27 26 0 18 -6 32 -16 36 -21 8 -22 8 -29 -4z m25 -34 c0 -3
-4 -8 -10 -11 -5 -3 -10 -1 -10 4 0 6 5 11 10 11 6 0 10 -2 10 -4z"/>
<path d="M4210 1065 c-23 -28 17 -72 43 -46 8 8 5 11 -11 11 -13 0 -22 6 -22
15 0 8 9 15 21 15 11 0 17 5 14 10 -9 15 -31 12 -45 -5z"/>
<path d="M4282 1068 c-7 -7 -12 -17 -12 -24 0 -19 28 -37 47 -29 17 7 16 8 -2
15 -19 8 -19 9 3 9 25 1 30 26 6 35 -22 8 -28 8 -42 -6z m35 -14 c-3 -3 -12
-4 -19 -1 -8 3 -5 6 6 6 11 1 17 -2 13 -5z"/>
</g>
</svg>
