<?xml version="1.0" standalone="no"?>
<!DOCTYPE svg PUBLIC "-//W3C//DTD SVG 20010904//EN"
 "http://www.w3.org/TR/2001/REC-SVG-20010904/DTD/svg10.dtd">
<svg version="1.0" xmlns="http://www.w3.org/2000/svg"
 width="200.000000pt" height="200.000000pt" viewBox="0 0 200.000000 200.000000"
 preserveAspectRatio="xMidYMid meet">

<g transform="translate(0.000000,200.000000) scale(0.100000,-0.100000)"
fill="#000000" stroke="none">
<path d="M815 1750 c-134 -35 -214 -80 -318 -179 -76 -72 -139 -162 -188 -266
-21 -45 -39 -86 -39 -89 0 -14 57 -3 157 30 99 33 112 35 153 25 25 -7 50 -12
55 -11 6 0 44 3 85 6 58 5 96 1 165 -16 105 -25 241 -39 232 -23 -4 6 -23 14
-42 17 -44 9 -46 26 -2 27 28 1 26 3 -18 13 -46 11 -48 13 -28 24 12 7 57 18
100 24 l78 13 -65 5 -65 6 40 8 c22 5 65 12 95 16 l55 6 -40 12 c-22 7 -49 12
-60 12 -17 0 -17 2 -5 10 8 5 42 10 75 11 42 0 54 3 40 9 -23 9 -20 11 60 29
54 12 218 1 269 -19 38 -14 43 -13 49 10 3 11 2 18 -2 15 -4 -2 -32 21 -62 51
-107 110 -256 197 -391 229 -91 21 -294 19 -383 -5z"/>
<path d="M165 1260 c3 -5 8 -10 11 -10 2 0 4 5 4 10 0 6 -5 10 -11 10 -5 0 -7
-4 -4 -10z"/>
<path d="M1523 1239 c-24 -12 -54 -35 -68 -51 -22 -27 -25 -38 -23 -102 1 -40
-2 -77 -5 -83 -7 -12 13 -23 41 -23 9 0 33 -5 53 -10 34 -9 37 -14 47 -63 12
-55 9 -60 -41 -92 -14 -9 -9 -24 38 -118 30 -60 55 -117 55 -127 0 -27 22 -30
41 -6 40 51 93 176 110 261 19 91 24 217 13 310 -6 44 -9 51 -30 53 -13 1 -55
18 -94 37 -38 19 -75 35 -82 35 -7 0 -32 -9 -55 -21z"/>
<path d="M495 1178 c-79 -36 -160 -43 -210 -17 l-30 15 -3 -131 c-4 -149 8
-230 48 -333 75 -186 223 -340 412 -426 108 -50 167 -61 313 -61 109 0 142 4
205 23 132 42 222 96 334 202 l58 55 -28 5 c-23 5 -29 10 -27 30 4 58 -63 185
-108 207 -36 17 -61 24 -55 15 3 -4 -4 -14 -15 -21 -19 -11 -20 -10 -17 18 2
27 -3 34 -42 59 -25 16 -54 37 -64 47 -16 17 -35 19 -125 20 -94 1 -115 4
-182 31 l-76 31 -14 -21 c-98 -155 -101 -178 -31 -242 26 -24 50 -44 54 -44
13 0 32 -44 39 -90 3 -25 10 -54 14 -64 8 -18 5 -19 -40 -13 -56 8 -63 13 -47
29 7 7 12 27 12 44 0 43 -37 85 -115 135 -79 50 -93 78 -72 148 l15 50 -52
-26 c-75 -38 -77 -43 -73 -158 2 -55 0 -113 -5 -130 -5 -16 -11 -40 -12 -53
-2 -12 -5 -25 -8 -27 -7 -7 -78 44 -78 56 0 6 14 31 32 56 l31 47 -16 47 c-29
82 -23 127 28 205 50 75 50 78 30 114 -16 29 -20 136 -5 174 5 14 6 26 2 26
-4 0 -38 -15 -77 -32z"/>
</g>
</svg>
